# xmcd CD database file
#
# Track frame offsets:
#	150
#	16206
#	34981
#	54941
#	84437
#	106107
#	122946
#	147031
#	158626
#	186369
#	201847
#	218540
#
# Disc length: 3003 seconds
#
# Revision: 0
# Processed by: cddbd v1.5.2PL0 Copyright (c) Steve Scherf et al.
# Submitted via: CDex 1.51
#
DISCID=990bb90c
DTITLE=Eric Luter - Smile
DYEAR=2008
DGENRE=Jazz
TTITLE0=Them there eyes
TTITLE1=I cover the waterfront
TTITLE2=Mardi Gras in New Orleans
TTITLE3=Blue and sentimental
TTITLE4=Baby won't you please come home
TTITLE5=Just you just me
TTITLE6=Fee fee foo
TTITLE7=Polka dots and moonbeams
TTITLE8=Cherry
TTITLE9=Our love is here to stay
TTITLE10=Anatoladonf
TTITLE11=Smile
EXTD=YEAR: 2008
EXTT0=
EXTT1=
EXTT2=
EXTT3=
EXTT4=
EXTT5=
EXTT6=
EXTT7=
EXTT8=
EXTT9=
EXTT10=
EXTT11=
PLAYORDER=
